<svg xmlns="http://www.w3.org/2000/svg" viewBox="0 0 32 32" role="img" aria-label="Corey Wininger">
  <rect width="32" height="32" rx="6" fill="#12151C"/>
  <!-- C letterform -->
  <path d="M13.5 10.5C10.5 10.5 8 13 8 16s2.5 5.5 5.5 5.5c1.8 0 3.3-.8 4.2-2.1l-2-1.2c-.5.7-1.3 1.1-2.2 1.1-1.8 0-3.2-1.5-3.2-3.3s1.4-3.3 3.2-3.3c.9 0 1.7.4 2.2 1.1l2-1.2c-.9-1.3-2.4-2.1-4.2-2.1z" fill="#2DD4BF"/>
  <!-- W letterform -->
  <path d="M16.5 10.8l2.2 7.4 2-5 2 5 2.2-7.4h-2.3l-1 3.8-1.5-4.1h-1.2l-1.5 4.1-1-3.8z" fill="#2DD4BF"/>
</svg>
